<svg xmlns="http://www.w3.org/2000/svg" viewBox="0 0 525 59.9"><defs><style>.cls-1{fill:#ed3425;}.cls-2{fill:#f26f24;}</style></defs><title>Asset 1</title><g id="Layer_2" data-name="Layer 2"><g id="Layer_1-2" data-name="Layer 1"><path class="cls-1" d="M163.82,28.89c-.6-4.28-4.67-7.53-9.34-7.53-8.45,0-11.63,7.23-11.63,14.76,0,7.17,3.18,14.4,11.63,14.4,5.75,0,9-4,9.7-9.64h9.11c-1,10.73-8.33,17.6-18.81,17.6-13.25,0-21-9.94-21-22.36,0-12.77,7.79-22.71,21-22.71,9.4,0,17.31,5.54,18.45,15.48Z"/><rect class="cls-1" x="179.7" y="14.43" width="9.41" height="43.02"/><polygon class="cls-1" points="197.38 14.43 206.72 14.43 224.58 43.29 224.7 43.29 224.7 14.43 233.51 14.43 233.51 57.45 224.1 57.45 206.3 28.65 206.18 28.65 206.18 57.45 197.38 57.45 197.38 14.43"/><polygon class="cls-1" points="241.77 14.43 273.77 14.43 273.77 22.39 251.18 22.39 251.18 31.6 271.91 31.6 271.91 38.95 251.18 38.95 251.18 49.5 274.25 49.5 274.25 57.45 241.77 57.45 241.77 14.43"/><polygon class="cls-1" points="280.6 14.43 293.84 14.43 303.85 44.02 303.97 44.02 313.44 14.43 326.68 14.43 326.68 57.45 317.87 57.45 317.87 26.96 317.75 26.96 307.26 57.45 300.01 57.45 289.53 27.27 289.41 27.27 289.41 57.45 280.6 57.45 280.6 14.43"/><path class="cls-1" d="M346.63,14.43h9.65l16,43h-9.77l-3.24-9.58h-16l-3.35,9.58h-9.53Zm-.9,26.39h11.09L351.42,25h-.12Z"/><path class="cls-1" d="M407.45,27.45A13.72,13.72,0,0,0,405.68,23a12.14,12.14,0,0,0-3-3.29,13.19,13.19,0,0,0-3.89-2,14.13,14.13,0,0,0-4.47-.7A15.32,15.32,0,0,0,387,18.65,14.51,14.51,0,0,0,382,23,18.49,18.49,0,0,0,379.13,29a26.45,26.45,0,0,0,0,13.83A18.6,18.6,0,0,0,382,48.93a14.61,14.61,0,0,0,5,4.31,15.44,15.44,0,0,0,7.31,1.62,13,13,0,0,0,5.4-1.08,12.88,12.88,0,0,0,4.13-3,15.34,15.34,0,0,0,2.82-4.37,18.33,18.33,0,0,0,1.38-5.4h4.07a23.3,23.3,0,0,1-1.86,7.18,17.72,17.72,0,0,1-3.71,5.42,15.68,15.68,0,0,1-5.37,3.43,18.54,18.54,0,0,1-6.86,1.21,20,20,0,0,1-8.83-1.84,18.3,18.3,0,0,1-6.33-4.91,21.08,21.08,0,0,1-3.77-7.11,29.27,29.27,0,0,1,0-17,21.32,21.32,0,0,1,3.77-7.14,18.14,18.14,0,0,1,6.33-4.94,21.33,21.33,0,0,1,14.8-.94,17.37,17.37,0,0,1,5.27,2.68,15.46,15.46,0,0,1,3.95,4.37,14.77,14.77,0,0,1,2,6Z"/><polygon class="cls-1" points="418.35 14.43 422.42 14.43 422.42 53.96 446.39 53.96 446.39 57.45 418.35 57.45 418.35 14.43"/><path class="cls-1" d="M450.1,14.43h4.08V41.07a21,21,0,0,0,.84,6.35,10.61,10.61,0,0,0,2.46,4.28,9.34,9.34,0,0,0,3.95,2.41,17.24,17.24,0,0,0,5.27.75,17.48,17.48,0,0,0,5.34-.75A9.46,9.46,0,0,0,476,51.7a10.61,10.61,0,0,0,2.46-4.28,21,21,0,0,0,.84-6.35V14.43h4.07V42a21.06,21.06,0,0,1-.93,6.3A13.41,13.41,0,0,1,474.34,57a22.92,22.92,0,0,1-15.22,0A13.47,13.47,0,0,1,451,48.27a21.06,21.06,0,0,1-.93-6.3Z"/><path class="cls-1" d="M491.57,14.43h18.09a25.81,25.81,0,0,1,5.19.51,12.61,12.61,0,0,1,4.37,1.75,9.27,9.27,0,0,1,3,3.25,10.16,10.16,0,0,1,1.14,5,10.16,10.16,0,0,1-.54,3.28,10,10,0,0,1-1.53,2.89,9.59,9.59,0,0,1-2.34,2.2,8.65,8.65,0,0,1-3,1.27v.12a10.06,10.06,0,0,1,6.59,3.4A10.53,10.53,0,0,1,525,45.22a16.91,16.91,0,0,1-.18,2.32,11.27,11.27,0,0,1-.72,2.65,10.9,10.9,0,0,1-1.55,2.69,9.24,9.24,0,0,1-2.73,2.31,16.14,16.14,0,0,1-4.19,1.63,24.62,24.62,0,0,1-6,.63H491.57Zm4.07,18.86h14a14.17,14.17,0,0,0,4.26-.57,8.56,8.56,0,0,0,3-1.57,6.37,6.37,0,0,0,1.8-2.32,6.78,6.78,0,0,0,.6-2.83q0-8.07-9.65-8.07h-14Zm0,20.67h14a23,23,0,0,0,4.32-.39,9.86,9.86,0,0,0,3.59-1.42A7.17,7.17,0,0,0,520,49.41a9.21,9.21,0,0,0,.9-4.31A7.14,7.14,0,0,0,518,38.87q-2.89-2.09-8.36-2.08h-14Z"/><path class="cls-1" d="M126,6.38,124.12,1.2a1.8,1.8,0,1,0-3.39,1.19l1.93,5.46L125,9.16"/><path class="cls-2" d="M129.24,7.85l1.92-5.46a1.8,1.8,0,1,0-3.39-1.19L126,6.38l1,2.78"/><path class="cls-1" d="M135.41,6.41A1.78,1.78,0,0,0,133,5.74l-3.74,2.11-1,2.87,2,.73,4.56-2.59a1.79,1.79,0,0,0,.67-2.45"/><path class="cls-2" d="M127.74,14.37l3.92,1.47a1.69,1.69,0,0,0,.62.11,1.79,1.79,0,0,0,.64-3.47l-2.74-1-2.44,1.38"/><path class="cls-1" d="M124.15,14.37v2.84a1.8,1.8,0,1,0,3.59,0V14.37L126,13.7"/><path class="cls-1" d="M121.72,11.45l-2.74,1a1.8,1.8,0,0,0,.63,3.48,1.69,1.69,0,0,0,.62-.11l3.92-1.47V12.83"/><path class="cls-2" d="M122.66,7.85l-3.73-2.11a1.8,1.8,0,1,0-1.78,3.12l4.57,2.59,1.94-.73"/><path class="cls-1" d="M58,59.36a22.5,22.5,0,0,0,16.18-6.91A23.34,23.34,0,0,0,80,42.16L87.1,55.45a6.31,6.31,0,0,0,11.15,0L115.53,23a6.33,6.33,0,0,0-11.19-5.94L93.2,38.76l-.52,1.79-.52-1.79L81,17.06A6.33,6.33,0,0,0,69.83,23L74,30.82H61.15a5.44,5.44,0,0,0,0,10.87H67.5A10.81,10.81,0,0,1,58,46.88a10,10,0,0,1-7.25-3.11A11,11,0,0,1,47.68,36a10.74,10.74,0,0,1,8.19-10.61,6.25,6.25,0,0,0,1.25-11.77,8.68,8.68,0,0,0-5.55,0A23.28,23.28,0,0,0,35.2,36a23.87,23.87,0,0,0,.34,4c-2,3.29-5.76,7.42-12,7.42a11.2,11.2,0,0,1-2-22.18s1.29-.25,3.36-.42a6.07,6.07,0,0,0,4.86-6,6.23,6.23,0,0,0-6.23-6.23,23.65,23.65,0,0,0,0,47.29,23.33,23.33,0,0,0,17.7-8.12A22.68,22.68,0,0,0,58,59.36"/></g></g></svg>